<mxfile host="app.diagrams.net" agent="Mozilla/5.0 (Windows NT 10.0; Win64; x64) AppleWebKit/537.36 (KHTML, like Gecko) Chrome/141.0.0.0 Safari/537.36 Edg/141.0.0.0" version="28.2.5">
  <diagram name="Page-1" id="oI_D1jtA_2Ry2hBN5BJo">
    <mxGraphModel dx="1865" dy="755" grid="1" gridSize="10" guides="1" tooltips="1" connect="1" arrows="1" fold="1" page="0" pageScale="1" pageWidth="850" pageHeight="1100" math="0" shadow="0">
      <root>
        <mxCell id="0" />
        <mxCell id="1" parent="0" />
        <mxCell id="fzJYR4v_sxdQlqUcEIJs-1" value="DEPARTMENT USER INTERFACE" style="shape=cube;whiteSpace=wrap;html=1;boundedLbl=1;backgroundOutline=1;darkOpacity=0.05;darkOpacity2=0.1;fillColor=#1ba1e2;fontColor=#ffffff;strokeColor=#006EAF;" parent="1" vertex="1">
          <mxGeometry x="60" y="280" width="120" height="80" as="geometry" />
        </mxCell>
        <mxCell id="fzJYR4v_sxdQlqUcEIJs-2" value="VALIDATE INPUT" style="rounded=1;whiteSpace=wrap;html=1;fillColor=#1ba1e2;fontColor=#ffffff;strokeColor=#006EAF;" parent="1" vertex="1">
          <mxGeometry x="340" y="260" width="120" height="140" as="geometry" />
        </mxCell>
        <mxCell id="fzJYR4v_sxdQlqUcEIJs-3" value="PREPARE SQL STATEMENT" style="rounded=1;whiteSpace=wrap;html=1;fillColor=#1ba1e2;fontColor=#ffffff;strokeColor=#006EAF;" parent="1" vertex="1">
          <mxGeometry x="630" width="120" height="140" as="geometry" />
        </mxCell>
        <mxCell id="fzJYR4v_sxdQlqUcEIJs-7" value="" style="endArrow=none;html=1;rounded=0;exitX=0;exitY=0.25;exitDx=0;exitDy=0;entryX=1;entryY=0.25;entryDx=0;entryDy=0;" parent="1" source="fzJYR4v_sxdQlqUcEIJs-2" target="fzJYR4v_sxdQlqUcEIJs-2" edge="1">
          <mxGeometry width="50" height="50" relative="1" as="geometry">
            <mxPoint x="400" y="440" as="sourcePoint" />
            <mxPoint x="450" y="390" as="targetPoint" />
          </mxGeometry>
        </mxCell>
        <mxCell id="fzJYR4v_sxdQlqUcEIJs-8" value="3.1" style="text;html=1;align=center;verticalAlign=middle;whiteSpace=wrap;rounded=0;" parent="1" vertex="1">
          <mxGeometry x="370" y="260" width="60" height="30" as="geometry" />
        </mxCell>
        <mxCell id="fzJYR4v_sxdQlqUcEIJs-10" value="" style="endArrow=none;html=1;rounded=0;exitX=0;exitY=0.25;exitDx=0;exitDy=0;entryX=1;entryY=0.25;entryDx=0;entryDy=0;" parent="1" edge="1">
          <mxGeometry width="50" height="50" relative="1" as="geometry">
            <mxPoint x="630" y="40" as="sourcePoint" />
            <mxPoint x="750" y="40" as="targetPoint" />
          </mxGeometry>
        </mxCell>
        <mxCell id="fzJYR4v_sxdQlqUcEIJs-12" value="3.3" style="text;html=1;align=center;verticalAlign=middle;whiteSpace=wrap;rounded=0;" parent="1" vertex="1">
          <mxGeometry x="660" width="60" height="30" as="geometry" />
        </mxCell>
        <mxCell id="fzJYR4v_sxdQlqUcEIJs-15" value="AUTHORIZE ACTION" style="rounded=1;whiteSpace=wrap;html=1;fillColor=#1ba1e2;fontColor=#ffffff;strokeColor=#006EAF;" parent="1" vertex="1">
          <mxGeometry x="340" width="120" height="140" as="geometry" />
        </mxCell>
        <mxCell id="fzJYR4v_sxdQlqUcEIJs-16" value="" style="endArrow=none;html=1;rounded=0;exitX=0;exitY=0.25;exitDx=0;exitDy=0;entryX=1;entryY=0.25;entryDx=0;entryDy=0;" parent="1" source="fzJYR4v_sxdQlqUcEIJs-15" target="fzJYR4v_sxdQlqUcEIJs-15" edge="1">
          <mxGeometry width="50" height="50" relative="1" as="geometry">
            <mxPoint x="460" y="180" as="sourcePoint" />
            <mxPoint x="510" y="130" as="targetPoint" />
          </mxGeometry>
        </mxCell>
        <mxCell id="fzJYR4v_sxdQlqUcEIJs-17" value="3.2" style="text;html=1;align=center;verticalAlign=middle;whiteSpace=wrap;rounded=0;" parent="1" vertex="1">
          <mxGeometry x="370" width="60" height="30" as="geometry" />
        </mxCell>
        <mxCell id="fzJYR4v_sxdQlqUcEIJs-31" value="" style="shape=partialRectangle;whiteSpace=wrap;html=1;left=0;right=0;fillColor=#1ba1e2;fontColor=#ffffff;strokeColor=light-dark(#000000,#F9F9F9);" parent="1" vertex="1">
          <mxGeometry x="920" y="310" width="210" height="60" as="geometry" />
        </mxCell>
        <mxCell id="fzJYR4v_sxdQlqUcEIJs-33" value="" style="endArrow=none;html=1;rounded=0;entryX=0;entryY=0;entryDx=0;entryDy=0;exitX=0;exitY=1;exitDx=0;exitDy=0;" parent="1" source="fzJYR4v_sxdQlqUcEIJs-31" target="fzJYR4v_sxdQlqUcEIJs-31" edge="1">
          <mxGeometry width="50" height="50" relative="1" as="geometry">
            <mxPoint x="430" y="360" as="sourcePoint" />
            <mxPoint x="480" y="310" as="targetPoint" />
          </mxGeometry>
        </mxCell>
        <mxCell id="fzJYR4v_sxdQlqUcEIJs-34" value="" style="endArrow=none;html=1;rounded=0;entryX=0.25;entryY=0;entryDx=0;entryDy=0;exitX=0.25;exitY=1;exitDx=0;exitDy=0;" parent="1" source="fzJYR4v_sxdQlqUcEIJs-31" target="fzJYR4v_sxdQlqUcEIJs-31" edge="1">
          <mxGeometry width="50" height="50" relative="1" as="geometry">
            <mxPoint x="430" y="360" as="sourcePoint" />
            <mxPoint x="480" y="310" as="targetPoint" />
          </mxGeometry>
        </mxCell>
        <mxCell id="fzJYR4v_sxdQlqUcEIJs-35" value="D1" style="text;html=1;align=center;verticalAlign=middle;whiteSpace=wrap;rounded=0;" parent="1" vertex="1">
          <mxGeometry x="940" y="325" width="10" height="30" as="geometry" />
        </mxCell>
        <mxCell id="fzJYR4v_sxdQlqUcEIJs-36" value="PRODUCTION INFORMATION DATABASE" style="text;html=1;align=center;verticalAlign=middle;whiteSpace=wrap;rounded=0;" parent="1" vertex="1">
          <mxGeometry x="1020" y="325" width="60" height="30" as="geometry" />
        </mxCell>
        <mxCell id="ckjgms4nVNcCSUkzyN0s-1" value="EXECUTE BD REQUEST (INSERT/UPDATE/&lt;div&gt;DELETE D1)&lt;/div&gt;" style="rounded=1;whiteSpace=wrap;html=1;fillColor=#1ba1e2;fontColor=#ffffff;strokeColor=#006EAF;" parent="1" vertex="1">
          <mxGeometry x="630" y="260" width="120" height="140" as="geometry" />
        </mxCell>
        <mxCell id="ckjgms4nVNcCSUkzyN0s-2" value="" style="endArrow=none;html=1;rounded=0;exitX=0;exitY=0.25;exitDx=0;exitDy=0;entryX=1;entryY=0.25;entryDx=0;entryDy=0;" parent="1" edge="1">
          <mxGeometry width="50" height="50" relative="1" as="geometry">
            <mxPoint x="630" y="300" as="sourcePoint" />
            <mxPoint x="750" y="300" as="targetPoint" />
          </mxGeometry>
        </mxCell>
        <mxCell id="ckjgms4nVNcCSUkzyN0s-3" value="3.4" style="text;html=1;align=center;verticalAlign=middle;whiteSpace=wrap;rounded=0;" parent="1" vertex="1">
          <mxGeometry x="660" y="260" width="60" height="30" as="geometry" />
        </mxCell>
        <mxCell id="ckjgms4nVNcCSUkzyN0s-5" value="" style="endArrow=classic;html=1;rounded=0;entryX=1;entryY=0.5;entryDx=0;entryDy=0;exitX=0.5;exitY=1;exitDx=0;exitDy=0;" parent="1" source="ckjgms4nVNcCSUkzyN0s-1" target="qWBt95wWeyxQi1-5fbAI-5" edge="1">
          <mxGeometry width="50" height="50" relative="1" as="geometry">
            <mxPoint x="845" y="745" as="sourcePoint" />
            <mxPoint x="605" y="550" as="targetPoint" />
            <Array as="points">
              <mxPoint x="690" y="490" />
            </Array>
          </mxGeometry>
        </mxCell>
        <mxCell id="ckjgms4nVNcCSUkzyN0s-8" value="WO C/U/D REQUEST" style="text;html=1;align=center;verticalAlign=middle;whiteSpace=wrap;rounded=0;" parent="1" vertex="1">
          <mxGeometry x="190" y="300" width="130" height="30" as="geometry" />
        </mxCell>
        <mxCell id="qWBt95wWeyxQi1-5fbAI-4" value="AUDIT LOGGING" style="shape=cube;whiteSpace=wrap;html=1;boundedLbl=1;backgroundOutline=1;darkOpacity=0.05;darkOpacity2=0.1;fillColor=#1ba1e2;fontColor=#ffffff;strokeColor=#006EAF;" vertex="1" parent="1">
          <mxGeometry x="480" y="650" width="120" height="80" as="geometry" />
        </mxCell>
        <mxCell id="qWBt95wWeyxQi1-5fbAI-5" value="LOG TRANSACTION ACTIVITY" style="rounded=1;whiteSpace=wrap;html=1;fillColor=#1ba1e2;fontColor=#ffffff;strokeColor=#006EAF;" vertex="1" parent="1">
          <mxGeometry x="480" y="420" width="120" height="140" as="geometry" />
        </mxCell>
        <mxCell id="qWBt95wWeyxQi1-5fbAI-6" value="" style="endArrow=none;html=1;rounded=0;exitX=0;exitY=0.25;exitDx=0;exitDy=0;entryX=1;entryY=0.25;entryDx=0;entryDy=0;" edge="1" parent="1">
          <mxGeometry width="50" height="50" relative="1" as="geometry">
            <mxPoint x="480" y="460" as="sourcePoint" />
            <mxPoint x="600" y="460" as="targetPoint" />
          </mxGeometry>
        </mxCell>
        <mxCell id="qWBt95wWeyxQi1-5fbAI-7" value="3.5" style="text;html=1;align=center;verticalAlign=middle;whiteSpace=wrap;rounded=0;" vertex="1" parent="1">
          <mxGeometry x="510" y="420" width="60" height="30" as="geometry" />
        </mxCell>
        <mxCell id="qWBt95wWeyxQi1-5fbAI-8" value="" style="endArrow=classic;html=1;rounded=0;exitX=0;exitY=0;exitDx=120.00000000000001;exitDy=50;exitPerimeter=0;entryX=0;entryY=0.5;entryDx=0;entryDy=0;" edge="1" parent="1" source="fzJYR4v_sxdQlqUcEIJs-1" target="fzJYR4v_sxdQlqUcEIJs-2">
          <mxGeometry width="50" height="50" relative="1" as="geometry">
            <mxPoint x="250" y="310" as="sourcePoint" />
            <mxPoint x="160" y="490" as="targetPoint" />
          </mxGeometry>
        </mxCell>
        <mxCell id="qWBt95wWeyxQi1-5fbAI-10" value="" style="endArrow=classic;html=1;rounded=0;exitX=0.5;exitY=1;exitDx=0;exitDy=0;entryX=0.834;entryY=0.994;entryDx=0;entryDy=0;entryPerimeter=0;" edge="1" parent="1" source="fzJYR4v_sxdQlqUcEIJs-2" target="fzJYR4v_sxdQlqUcEIJs-1">
          <mxGeometry width="50" height="50" relative="1" as="geometry">
            <mxPoint x="280" y="470" as="sourcePoint" />
            <mxPoint x="120" y="362" as="targetPoint" />
            <Array as="points">
              <mxPoint x="400" y="430" />
              <mxPoint x="160" y="430" />
            </Array>
          </mxGeometry>
        </mxCell>
        <mxCell id="qWBt95wWeyxQi1-5fbAI-11" value="INPUT VALIDATION ERROR MESSAGE" style="text;html=1;align=center;verticalAlign=middle;whiteSpace=wrap;rounded=0;" vertex="1" parent="1">
          <mxGeometry x="210" y="440" width="130" height="30" as="geometry" />
        </mxCell>
        <mxCell id="qWBt95wWeyxQi1-5fbAI-12" value="" style="endArrow=classic;html=1;rounded=0;exitX=0.5;exitY=0;exitDx=0;exitDy=0;entryX=0.5;entryY=1;entryDx=0;entryDy=0;" edge="1" parent="1" source="fzJYR4v_sxdQlqUcEIJs-8" target="fzJYR4v_sxdQlqUcEIJs-15">
          <mxGeometry width="50" height="50" relative="1" as="geometry">
            <mxPoint x="400" y="200" as="sourcePoint" />
            <mxPoint x="560" y="200" as="targetPoint" />
          </mxGeometry>
        </mxCell>
        <mxCell id="qWBt95wWeyxQi1-5fbAI-13" value="VALID INPUT" style="text;html=1;align=center;verticalAlign=middle;whiteSpace=wrap;rounded=0;" vertex="1" parent="1">
          <mxGeometry x="390" y="190" width="130" height="30" as="geometry" />
        </mxCell>
        <mxCell id="qWBt95wWeyxQi1-5fbAI-14" value="" style="endArrow=classic;html=1;rounded=0;exitX=0;exitY=0;exitDx=120.00000000000001;exitDy=50;exitPerimeter=0;entryX=0;entryY=0.5;entryDx=0;entryDy=0;" edge="1" parent="1" target="fzJYR4v_sxdQlqUcEIJs-3">
          <mxGeometry width="50" height="50" relative="1" as="geometry">
            <mxPoint x="460" y="69.41" as="sourcePoint" />
            <mxPoint x="620" y="69.41" as="targetPoint" />
          </mxGeometry>
        </mxCell>
        <mxCell id="qWBt95wWeyxQi1-5fbAI-15" value="AUTHORIZED REQUEST" style="text;html=1;align=center;verticalAlign=middle;whiteSpace=wrap;rounded=0;" vertex="1" parent="1">
          <mxGeometry x="480" y="30" width="130" height="30" as="geometry" />
        </mxCell>
        <mxCell id="qWBt95wWeyxQi1-5fbAI-16" value="" style="endArrow=classic;html=1;rounded=0;exitX=0.5;exitY=1;exitDx=0;exitDy=0;entryX=0.5;entryY=0;entryDx=0;entryDy=0;" edge="1" parent="1" source="fzJYR4v_sxdQlqUcEIJs-3" target="ckjgms4nVNcCSUkzyN0s-3">
          <mxGeometry width="50" height="50" relative="1" as="geometry">
            <mxPoint x="640" y="204.41" as="sourcePoint" />
            <mxPoint x="810" y="205" as="targetPoint" />
          </mxGeometry>
        </mxCell>
        <mxCell id="qWBt95wWeyxQi1-5fbAI-17" value="&lt;span style=&quot;color: rgba(0, 0, 0, 0); font-family: monospace; font-size: 0px; text-align: start; text-wrap-mode: nowrap;&quot;&gt;%3CmxGraphModel%3E%3Croot%3E%3CmxCell%20id%3D%220%22%2F%3E%3CmxCell%20id%3D%221%22%20parent%3D%220%22%2F%3E%3CmxCell%20id%3D%222%22%20value%3D%22Valid%20Input%22%20style%3D%22text%3Bhtml%3D1%3Balign%3Dcenter%3BverticalAlign%3Dmiddle%3BwhiteSpace%3Dwrap%3Brounded%3D0%3B%22%20vertex%3D%221%22%20parent%3D%221%22%3E%3CmxGeometry%20x%3D%22390%22%20y%3D%22190%22%20width%3D%22130%22%20height%3D%2230%22%20as%3D%22geometry%22%2F%3E%3C%2FmxCell%3E%3C%2Froot%3E%3C%2FmxGraphModel%3E&lt;/span&gt;SQL STATEMENT (INSERT / UPDATE / DELETE)" style="text;html=1;align=center;verticalAlign=middle;whiteSpace=wrap;rounded=0;" vertex="1" parent="1">
          <mxGeometry x="700" y="190" width="130" height="30" as="geometry" />
        </mxCell>
        <mxCell id="qWBt95wWeyxQi1-5fbAI-18" value="" style="endArrow=classic;html=1;rounded=0;exitX=0;exitY=0;exitDx=120.00000000000001;exitDy=50;exitPerimeter=0;entryX=0;entryY=0.5;entryDx=0;entryDy=0;" edge="1" parent="1">
          <mxGeometry width="50" height="50" relative="1" as="geometry">
            <mxPoint x="750" y="319.29" as="sourcePoint" />
            <mxPoint x="920" y="319.88" as="targetPoint" />
          </mxGeometry>
        </mxCell>
        <mxCell id="qWBt95wWeyxQi1-5fbAI-19" value="INSERT / UPDATE / DELETE QUERY" style="text;html=1;align=center;verticalAlign=middle;whiteSpace=wrap;rounded=0;" vertex="1" parent="1">
          <mxGeometry x="770" y="280" width="130" height="30" as="geometry" />
        </mxCell>
        <mxCell id="qWBt95wWeyxQi1-5fbAI-20" value="" style="endArrow=classic;html=1;rounded=0;" edge="1" parent="1">
          <mxGeometry width="50" height="50" relative="1" as="geometry">
            <mxPoint x="920" y="358" as="sourcePoint" />
            <mxPoint x="750" y="358" as="targetPoint" />
          </mxGeometry>
        </mxCell>
        <mxCell id="qWBt95wWeyxQi1-5fbAI-21" value="QUERY SUCCESS" style="text;html=1;align=center;verticalAlign=middle;whiteSpace=wrap;rounded=0;" vertex="1" parent="1">
          <mxGeometry x="770" y="360" width="130" height="30" as="geometry" />
        </mxCell>
        <mxCell id="qWBt95wWeyxQi1-5fbAI-22" value="TRANSACTION RESULTS" style="text;html=1;align=center;verticalAlign=middle;whiteSpace=wrap;rounded=0;" vertex="1" parent="1">
          <mxGeometry x="690" y="460" width="130" height="30" as="geometry" />
        </mxCell>
        <mxCell id="qWBt95wWeyxQi1-5fbAI-24" value="" style="endArrow=classic;html=1;rounded=0;exitX=0.5;exitY=1;exitDx=0;exitDy=0;entryX=0.495;entryY=-0.01;entryDx=0;entryDy=0;entryPerimeter=0;" edge="1" parent="1" target="qWBt95wWeyxQi1-5fbAI-4">
          <mxGeometry width="50" height="50" relative="1" as="geometry">
            <mxPoint x="539.68" y="560" as="sourcePoint" />
            <mxPoint x="539.68" y="680" as="targetPoint" />
          </mxGeometry>
        </mxCell>
        <mxCell id="qWBt95wWeyxQi1-5fbAI-25" value="RECORDED C/U/D TRANSACTIONS" style="text;html=1;align=center;verticalAlign=middle;whiteSpace=wrap;rounded=0;" vertex="1" parent="1">
          <mxGeometry x="545" y="590" width="130" height="30" as="geometry" />
        </mxCell>
        <mxCell id="qWBt95wWeyxQi1-5fbAI-26" value="" style="endArrow=classic;html=1;rounded=0;entryX=0.357;entryY=1.025;entryDx=0;entryDy=0;entryPerimeter=0;exitX=0;exitY=0.5;exitDx=0;exitDy=0;" edge="1" parent="1" source="qWBt95wWeyxQi1-5fbAI-5" target="fzJYR4v_sxdQlqUcEIJs-1">
          <mxGeometry width="50" height="50" relative="1" as="geometry">
            <mxPoint x="480" y="540" as="sourcePoint" />
            <mxPoint x="215" y="490" as="targetPoint" />
            <Array as="points">
              <mxPoint x="103" y="490" />
            </Array>
          </mxGeometry>
        </mxCell>
        <mxCell id="qWBt95wWeyxQi1-5fbAI-27" value="WO C/U/D Acknowledgements" style="text;html=1;align=center;verticalAlign=middle;whiteSpace=wrap;rounded=0;" vertex="1" parent="1">
          <mxGeometry x="210" y="500" width="130" height="30" as="geometry" />
        </mxCell>
      </root>
    </mxGraphModel>
  </diagram>
</mxfile>
